<svg width="60" height="63" viewBox="0 0 60 63" fill="none" xmlns="http://www.w3.org/2000/svg">
<path fill-rule="evenodd" clip-rule="evenodd" d="M30.0002 0.916656C31.1821 0.916656 32.2472 1.62992 32.6972 2.7228L41.4072 23.8757L54.4032 13.2426C55.3493 12.4686 56.6777 12.3666 57.7308 12.9871C58.784 13.6076 59.3385 14.8191 59.1198 16.0217L53.3335 47.8463V59.25C53.3335 60.8608 52.0277 62.1667 50.4169 62.1667H9.58352C7.97269 62.1667 6.66685 60.8608 6.66685 59.25V47.8463L0.880565 16.0217C0.661899 14.8191 1.21637 13.6076 2.26953 12.9871C3.32268 12.3666 4.65106 12.4686 5.59713 13.2426L18.5932 23.8757L27.3032 2.7228C27.7532 1.62992 28.8183 0.916656 30.0002 0.916656ZM12.5002 50.5V56.3333H47.5002V50.5H12.5002ZM47.9827 44.6667L51.9627 22.7764L42.0555 30.8824C41.3404 31.4674 40.3905 31.6791 39.4948 31.453C38.599 31.2269 37.8633 30.5898 37.5115 29.7355L30.0002 11.4936L22.4888 29.7355C22.1371 30.5898 21.4014 31.2269 20.5056 31.453C19.6098 31.6791 18.6599 31.4674 17.9449 30.8824L8.03766 22.7764L12.0177 44.6667H47.9827Z" fill="#F1F1F1"/>
</svg>
